<svg xmlns="http://www.w3.org/2000/svg" viewBox="0 0 1048.62 744.7"><defs><style>.cls-1{fill:#111fff;}</style></defs><title>logodM</title><g id="Capa_2" data-name="Capa 2"><g id="Capa_1-2" data-name="Capa 1"><path class="cls-1" d="M12.68,372.83Q25.35,325.45,49.77,290A190.7,190.7,0,0,1,113.91,230q38.76-22.26,91.89-22.26,48.81,0,88.54,21.06a179.06,179.06,0,0,1,65.09,58.39V0h57.43V735.13h-53.6l-1.92-66a174.85,174.85,0,0,1-68,56.23q-41.16,19.38-88.54,19.38-51.21,0-89.74-22.49a202.37,202.37,0,0,1-64.37-59.35Q25.85,626.5,12.92,579.11A369.6,369.6,0,0,1,0,481.47V471.42A379.89,379.89,0,0,1,12.68,372.83ZM66.05,557.57q8.61,37.81,26.8,68a150,150,0,0,0,48.58,49.54Q171.33,694,215.85,694,263.24,694,302,670t57.43-66V356.08q-17.71-44-55.28-71.07t-87.34-27q-45,0-75.14,19.14a151.63,151.63,0,0,0-48.82,49.78,223.19,223.19,0,0,0-27,68.44,350.38,350.38,0,0,0-8.38,76.09v10.05A341.07,341.07,0,0,0,66.05,557.57Z"/><path class="cls-1" d="M806.44,300.08,881.58,38.29h167V735.13H925.14V528.86l5.74-325.93L839.47,505.4H772.94L691.1,215.85l5.74,313V735.13H573.37V38.29h167Z"/></g></g></svg>